<?xml version="1.0" standalone="no"?>
<!DOCTYPE svg PUBLIC "-//W3C//DTD SVG 20010904//EN"
 "http://www.w3.org/TR/2001/REC-SVG-20010904/DTD/svg10.dtd">
<svg version="1.0" xmlns="http://www.w3.org/2000/svg"
 width="2048.000000pt" height="2048.000000pt" viewBox="0 0 2048.000000 2048.000000"
 preserveAspectRatio="xMidYMid meet">
<metadata>
Created by potrace 1.14, written by Peter Selinger 2001-2017
</metadata>
<g transform="translate(0.000000,2048.000000) scale(0.100000,-0.100000)"
fill="#000000" stroke="none">
<path d="M10 10245 l0 -10235 10235 0 10235 0 0 10235 0 10235 -10235 0
-10235 0 0 -10235z m9092 7154 c405 -81 703 -324 1065 -869 300 -451 505 -833
713 -1326 66 -155 81 -196 156 -402 19 -52 36 -97 39 -101 2 -5 64 3 137 16
305 54 647 96 905 110 178 10 788 10 963 0 525 -29 834 -109 1093 -281 171
-115 303 -261 401 -448 112 -212 167 -426 202 -795 19 -194 28 -955 14 -1143
-10 -133 -30 -351 -36 -395 -2 -16 -11 -84 -19 -150 -9 -66 -22 -158 -30 -205
-8 -47 -17 -101 -20 -120 -3 -19 -12 -64 -19 -100 -9 -42 -11 -69 -4 -77 5 -6
46 -24 91 -39 80 -26 122 -42 317 -119 99 -40 143 -59 248 -106 34 -16 65 -29
68 -29 17 0 498 -248 639 -330 226 -130 710 -446 735 -479 3 -4 46 -41 96 -83
372 -313 540 -667 520 -1098 -12 -272 -92 -516 -318 -965 -119 -237 -226 -426
-355 -628 -24 -37 -43 -69 -43 -71 0 -9 -209 -310 -303 -436 -88 -117 -199
-259 -255 -325 -9 -11 -43 -51 -76 -90 -236 -281 -708 -748 -955 -943 -44 -35
-161 -129 -186 -150 -11 -10 -45 -35 -75 -57 -30 -21 -57 -42 -60 -45 -15 -15
-80 -60 -88 -60 -6 0 -12 -4 -14 -9 -4 -12 -374 -261 -387 -261 -6 0 -11 -4
-11 -10 0 -5 -7 -10 -15 -10 -8 0 -15 -4 -15 -10 0 -5 -4 -10 -9 -10 -5 0 -50
-25 -100 -55 -51 -30 -96 -55 -101 -55 -6 0 -10 -3 -10 -8 0 -4 -17 -15 -37
-24 -21 -10 -63 -32 -93 -49 -30 -17 -109 -59 -175 -93 -66 -33 -121 -64 -123
-68 -2 -5 -9 -8 -15 -8 -9 0 -133 -56 -198 -90 -27 -14 -341 -146 -404 -170
-33 -12 -69 -26 -80 -31 -11 -4 -51 -20 -90 -34 -38 -14 -92 -34 -120 -45 -27
-10 -77 -26 -110 -36 -33 -9 -73 -22 -90 -30 -74 -33 -675 -186 -845 -214 -68
-11 -170 -29 -230 -40 -59 -10 -264 -40 -315 -45 -22 -2 -60 -7 -85 -10 -71
-9 -128 -14 -220 -20 -47 -3 -94 -8 -105 -10 -34 -6 -410 -18 -580 -18 -237 0
-572 17 -740 38 -16 2 -57 7 -90 10 -33 4 -73 8 -90 11 -30 4 -218 31 -285 40
-104 16 -372 72 -565 119 -235 57 -376 97 -590 166 -16 6 -37 12 -45 14 -23 5
-231 79 -295 105 -559 224 -878 379 -1287 628 -68 41 -114 63 -125 59 -72 -22
-296 -84 -329 -90 -10 -2 -32 -7 -49 -11 -175 -44 -377 -86 -505 -105 -36 -6
-92 -15 -125 -21 -33 -6 -82 -13 -108 -16 -26 -2 -90 -11 -141 -19 -128 -21
-204 -21 -223 -3 -8 9 -16 33 -16 54 -2 51 12 209 23 259 5 22 12 72 15 110 4
39 9 73 11 76 3 5 18 89 30 164 13 84 37 209 54 285 46 196 81 340 105 425 41
147 42 136 -4 205 -23 34 -41 63 -41 65 0 1 -17 32 -38 66 -315 520 -626 1252
-792 1865 -77 283 -166 681 -185 824 -3 25 -10 68 -15 95 -11 56 -10 48 -38
305 -37 330 -47 502 -47 820 1 457 32 862 95 1250 6 36 17 106 25 155 42 271
172 779 275 1080 70 205 184 505 220 580 9 19 45 99 101 225 99 223 363 710
470 867 16 23 29 45 29 48 0 19 389 569 420 595 3 3 19 23 36 45 46 63 214
263 294 349 609 665 1222 1161 1940 1571 163 93 476 254 620 320 394 179 722
235 1022 174z"/>
</g>
</svg>
